<mxfile host="app.diagrams.net" modified="2024-04-03T22:35:44.927Z" agent="Mozilla/5.0 (Windows NT 10.0; Win64; x64) AppleWebKit/537.36 (KHTML, like Gecko) Chrome/123.0.0.0 Safari/537.36 Edg/123.0.0.0" etag="5se1qebujUDpK3Cc_JXt" version="24.2.1" type="github">
  <diagram name="Seite-1" id="hTrbMKCkUKKpdgVP7ttc">
    <mxGraphModel dx="1386" dy="819" grid="1" gridSize="10" guides="1" tooltips="1" connect="1" arrows="1" fold="1" page="1" pageScale="1" pageWidth="827" pageHeight="1169" math="0" shadow="0">
      <root>
        <mxCell id="0" />
        <mxCell id="1" parent="0" />
        <mxCell id="aJEjpHLFsi_cJQcQf6Nc-1" value="Experiment" style="swimlane;fontStyle=0;childLayout=stackLayout;horizontal=1;startSize=26;fillColor=none;horizontalStack=0;resizeParent=1;resizeParentMax=0;resizeLast=0;collapsible=1;marginBottom=0;whiteSpace=wrap;html=1;" parent="1" vertex="1">
          <mxGeometry x="240" y="40" width="140" height="156" as="geometry" />
        </mxCell>
        <mxCell id="aJEjpHLFsi_cJQcQf6Nc-2" value="+ id: String&lt;div&gt;&lt;br&gt;&lt;/div&gt;" style="text;strokeColor=none;fillColor=none;align=left;verticalAlign=top;spacingLeft=4;spacingRight=4;overflow=hidden;rotatable=0;points=[[0,0.5],[1,0.5]];portConstraint=eastwest;whiteSpace=wrap;html=1;" parent="aJEjpHLFsi_cJQcQf6Nc-1" vertex="1">
          <mxGeometry y="26" width="140" height="26" as="geometry" />
        </mxCell>
        <mxCell id="aJEjpHLFsi_cJQcQf6Nc-3" value="+ title: String" style="text;strokeColor=none;fillColor=none;align=left;verticalAlign=top;spacingLeft=4;spacingRight=4;overflow=hidden;rotatable=0;points=[[0,0.5],[1,0.5]];portConstraint=eastwest;whiteSpace=wrap;html=1;" parent="aJEjpHLFsi_cJQcQf6Nc-1" vertex="1">
          <mxGeometry y="52" width="140" height="26" as="geometry" />
        </mxCell>
        <mxCell id="duTGw4LvQdPXdJmLXDdw-10" value="+ description: String" style="text;strokeColor=none;fillColor=none;align=left;verticalAlign=top;spacingLeft=4;spacingRight=4;overflow=hidden;rotatable=0;points=[[0,0.5],[1,0.5]];portConstraint=eastwest;whiteSpace=wrap;html=1;" parent="aJEjpHLFsi_cJQcQf6Nc-1" vertex="1">
          <mxGeometry y="78" width="140" height="26" as="geometry" />
        </mxCell>
        <mxCell id="duTGw4LvQdPXdJmLXDdw-11" value="+ authors: String[]" style="text;strokeColor=none;fillColor=none;align=left;verticalAlign=top;spacingLeft=4;spacingRight=4;overflow=hidden;rotatable=0;points=[[0,0.5],[1,0.5]];portConstraint=eastwest;whiteSpace=wrap;html=1;" parent="aJEjpHLFsi_cJQcQf6Nc-1" vertex="1">
          <mxGeometry y="104" width="140" height="26" as="geometry" />
        </mxCell>
        <mxCell id="aJEjpHLFsi_cJQcQf6Nc-4" value="+ tasks: Task[]" style="text;strokeColor=none;fillColor=none;align=left;verticalAlign=top;spacingLeft=4;spacingRight=4;overflow=hidden;rotatable=0;points=[[0,0.5],[1,0.5]];portConstraint=eastwest;whiteSpace=wrap;html=1;" parent="aJEjpHLFsi_cJQcQf6Nc-1" vertex="1">
          <mxGeometry y="130" width="140" height="26" as="geometry" />
        </mxCell>
        <mxCell id="aJEjpHLFsi_cJQcQf6Nc-5" value="Task" style="swimlane;fontStyle=0;childLayout=stackLayout;horizontal=1;startSize=26;fillColor=none;horizontalStack=0;resizeParent=1;resizeParentMax=0;resizeLast=0;collapsible=1;marginBottom=0;whiteSpace=wrap;html=1;" parent="1" vertex="1">
          <mxGeometry x="500" y="40" width="140" height="104" as="geometry" />
        </mxCell>
        <mxCell id="aJEjpHLFsi_cJQcQf6Nc-6" value="+ id: String" style="text;strokeColor=none;fillColor=none;align=left;verticalAlign=top;spacingLeft=4;spacingRight=4;overflow=hidden;rotatable=0;points=[[0,0.5],[1,0.5]];portConstraint=eastwest;whiteSpace=wrap;html=1;" parent="aJEjpHLFsi_cJQcQf6Nc-5" vertex="1">
          <mxGeometry y="26" width="140" height="26" as="geometry" />
        </mxCell>
        <mxCell id="aJEjpHLFsi_cJQcQf6Nc-7" value="+ title: String" style="text;strokeColor=none;fillColor=none;align=left;verticalAlign=top;spacingLeft=4;spacingRight=4;overflow=hidden;rotatable=0;points=[[0,0.5],[1,0.5]];portConstraint=eastwest;whiteSpace=wrap;html=1;" parent="aJEjpHLFsi_cJQcQf6Nc-5" vertex="1">
          <mxGeometry y="52" width="140" height="26" as="geometry" />
        </mxCell>
        <mxCell id="aJEjpHLFsi_cJQcQf6Nc-8" value="+ widgets: Widget[]" style="text;strokeColor=none;fillColor=none;align=left;verticalAlign=top;spacingLeft=4;spacingRight=4;overflow=hidden;rotatable=0;points=[[0,0.5],[1,0.5]];portConstraint=eastwest;whiteSpace=wrap;html=1;" parent="aJEjpHLFsi_cJQcQf6Nc-5" vertex="1">
          <mxGeometry y="78" width="140" height="26" as="geometry" />
        </mxCell>
        <mxCell id="aJEjpHLFsi_cJQcQf6Nc-19" value="contains" style="endArrow=open;html=1;endSize=12;startArrow=diamondThin;startSize=14;startFill=0;edgeStyle=orthogonalEdgeStyle;rounded=0;exitX=0.986;exitY=-0.077;exitDx=0;exitDy=0;exitPerimeter=0;" parent="1" source="aJEjpHLFsi_cJQcQf6Nc-3" target="aJEjpHLFsi_cJQcQf6Nc-5" edge="1">
          <mxGeometry relative="1" as="geometry">
            <mxPoint x="400" y="92" as="sourcePoint" />
            <mxPoint x="490" y="240" as="targetPoint" />
          </mxGeometry>
        </mxCell>
        <mxCell id="aJEjpHLFsi_cJQcQf6Nc-20" value="0..n" style="edgeLabel;resizable=0;html=1;align=left;verticalAlign=top;" parent="aJEjpHLFsi_cJQcQf6Nc-19" connectable="0" vertex="1">
          <mxGeometry x="-1" relative="1" as="geometry">
            <mxPoint x="12" y="10" as="offset" />
          </mxGeometry>
        </mxCell>
        <mxCell id="aJEjpHLFsi_cJQcQf6Nc-21" value="1..n" style="edgeLabel;resizable=0;html=1;align=right;verticalAlign=top;" parent="aJEjpHLFsi_cJQcQf6Nc-19" connectable="0" vertex="1">
          <mxGeometry x="1" relative="1" as="geometry">
            <mxPoint x="-14" y="8" as="offset" />
          </mxGeometry>
        </mxCell>
        <mxCell id="aJEjpHLFsi_cJQcQf6Nc-23" value="Widget" style="swimlane;fontStyle=0;childLayout=stackLayout;horizontal=1;startSize=26;fillColor=none;horizontalStack=0;resizeParent=1;resizeParentMax=0;resizeLast=0;collapsible=1;marginBottom=0;whiteSpace=wrap;html=1;" parent="1" vertex="1">
          <mxGeometry x="440" y="280" width="140" height="104" as="geometry" />
        </mxCell>
        <mxCell id="aJEjpHLFsi_cJQcQf6Nc-24" value="+ id: String" style="text;strokeColor=none;fillColor=none;align=left;verticalAlign=top;spacingLeft=4;spacingRight=4;overflow=hidden;rotatable=0;points=[[0,0.5],[1,0.5]];portConstraint=eastwest;whiteSpace=wrap;html=1;" parent="aJEjpHLFsi_cJQcQf6Nc-23" vertex="1">
          <mxGeometry y="26" width="140" height="26" as="geometry" />
        </mxCell>
        <mxCell id="SgNZFXFqU0z_mkOXl5cz-1" value="+ type: WidgetType&amp;nbsp;" style="text;strokeColor=none;fillColor=none;align=left;verticalAlign=top;spacingLeft=4;spacingRight=4;overflow=hidden;rotatable=0;points=[[0,0.5],[1,0.5]];portConstraint=eastwest;whiteSpace=wrap;html=1;" vertex="1" parent="aJEjpHLFsi_cJQcQf6Nc-23">
          <mxGeometry y="52" width="140" height="26" as="geometry" />
        </mxCell>
        <mxCell id="SgNZFXFqU0z_mkOXl5cz-7" value="+ properties: Object" style="text;strokeColor=none;fillColor=none;align=left;verticalAlign=top;spacingLeft=4;spacingRight=4;overflow=hidden;rotatable=0;points=[[0,0.5],[1,0.5]];portConstraint=eastwest;whiteSpace=wrap;html=1;" vertex="1" parent="aJEjpHLFsi_cJQcQf6Nc-23">
          <mxGeometry y="78" width="140" height="26" as="geometry" />
        </mxCell>
        <mxCell id="aJEjpHLFsi_cJQcQf6Nc-40" value="contains" style="endArrow=open;html=1;endSize=12;startArrow=diamondThin;startSize=14;startFill=1;edgeStyle=orthogonalEdgeStyle;rounded=0;entryX=0.5;entryY=0;entryDx=0;entryDy=0;" parent="1" source="aJEjpHLFsi_cJQcQf6Nc-8" target="aJEjpHLFsi_cJQcQf6Nc-23" edge="1">
          <mxGeometry x="-0.0977" relative="1" as="geometry">
            <mxPoint x="681.06" y="146.00199999999995" as="sourcePoint" />
            <mxPoint x="630" y="220" as="targetPoint" />
            <Array as="points">
              <mxPoint x="574" y="180" />
              <mxPoint x="510" y="180" />
            </Array>
            <mxPoint as="offset" />
          </mxGeometry>
        </mxCell>
        <mxCell id="aJEjpHLFsi_cJQcQf6Nc-41" value="1" style="edgeLabel;resizable=0;html=1;align=left;verticalAlign=top;" parent="aJEjpHLFsi_cJQcQf6Nc-40" connectable="0" vertex="1">
          <mxGeometry x="-1" relative="1" as="geometry">
            <mxPoint x="12" y="3" as="offset" />
          </mxGeometry>
        </mxCell>
        <mxCell id="aJEjpHLFsi_cJQcQf6Nc-42" value="1..n" style="edgeLabel;resizable=0;html=1;align=right;verticalAlign=top;" parent="aJEjpHLFsi_cJQcQf6Nc-40" connectable="0" vertex="1">
          <mxGeometry x="1" relative="1" as="geometry">
            <mxPoint x="-10" y="-30" as="offset" />
          </mxGeometry>
        </mxCell>
        <mxCell id="duTGw4LvQdPXdJmLXDdw-6" value="Toolkit" style="html=1;whiteSpace=wrap;" parent="1" vertex="1">
          <mxGeometry x="10" y="67" width="110" height="50" as="geometry" />
        </mxCell>
        <mxCell id="duTGw4LvQdPXdJmLXDdw-7" value="creates" style="endArrow=open;html=1;endSize=12;startArrow=diamondThin;startSize=14;startFill=0;edgeStyle=orthogonalEdgeStyle;rounded=0;exitX=1;exitY=0.5;exitDx=0;exitDy=0;" parent="1" source="duTGw4LvQdPXdJmLXDdw-6" target="aJEjpHLFsi_cJQcQf6Nc-1" edge="1">
          <mxGeometry relative="1" as="geometry">
            <mxPoint x="270" y="260" as="sourcePoint" />
            <mxPoint x="430" y="260" as="targetPoint" />
            <Array as="points">
              <mxPoint x="220" y="92" />
              <mxPoint x="220" y="92" />
            </Array>
          </mxGeometry>
        </mxCell>
        <mxCell id="duTGw4LvQdPXdJmLXDdw-8" value="1" style="edgeLabel;resizable=0;html=1;align=left;verticalAlign=top;" parent="duTGw4LvQdPXdJmLXDdw-7" connectable="0" vertex="1">
          <mxGeometry x="-1" relative="1" as="geometry">
            <mxPoint x="10" y="8" as="offset" />
          </mxGeometry>
        </mxCell>
        <mxCell id="duTGw4LvQdPXdJmLXDdw-9" value="0..n" style="edgeLabel;resizable=0;html=1;align=right;verticalAlign=top;" parent="duTGw4LvQdPXdJmLXDdw-7" connectable="0" vertex="1">
          <mxGeometry x="1" relative="1" as="geometry">
            <mxPoint x="-10" y="8" as="offset" />
          </mxGeometry>
        </mxCell>
        <mxCell id="SgNZFXFqU0z_mkOXl5cz-5" value="&lt;p style=&quot;margin:0px;margin-top:4px;text-align:center;&quot;&gt;&lt;i&gt;&amp;lt;&amp;lt;Enumeration&amp;gt;&amp;gt;&lt;/i&gt;&lt;br&gt;&lt;/p&gt;&lt;p style=&quot;margin:0px;margin-top:4px;text-align:center;&quot;&gt;WidgetType&lt;/p&gt;&lt;hr size=&quot;1&quot; style=&quot;border-style:solid;&quot;&gt;&lt;p style=&quot;margin:0px;margin-left:4px;&quot;&gt;Text&lt;/p&gt;&lt;p style=&quot;margin:0px;margin-left:4px;&quot;&gt;Prototype&lt;/p&gt;&lt;p style=&quot;margin:0px;margin-left:4px;&quot;&gt;&lt;br&gt;&lt;/p&gt;" style="verticalAlign=top;align=left;overflow=fill;html=1;whiteSpace=wrap;" vertex="1" parent="1">
          <mxGeometry x="130" y="280" width="190" height="85" as="geometry" />
        </mxCell>
        <mxCell id="SgNZFXFqU0z_mkOXl5cz-6" value="uses" style="endArrow=open;endSize=12;dashed=1;html=1;rounded=0;exitX=-0.01;exitY=0.026;exitDx=0;exitDy=0;exitPerimeter=0;entryX=1.011;entryY=0.329;entryDx=0;entryDy=0;entryPerimeter=0;" edge="1" parent="1" source="aJEjpHLFsi_cJQcQf6Nc-24" target="SgNZFXFqU0z_mkOXl5cz-5">
          <mxGeometry width="160" relative="1" as="geometry">
            <mxPoint x="300" y="280" as="sourcePoint" />
            <mxPoint x="330" y="307" as="targetPoint" />
          </mxGeometry>
        </mxCell>
      </root>
    </mxGraphModel>
  </diagram>
</mxfile>
